<?xml version="1.0" standalone="no"?>
<!DOCTYPE svg PUBLIC "-//W3C//DTD SVG 20010904//EN"
 "http://www.w3.org/TR/2001/REC-SVG-20010904/DTD/svg10.dtd">
<svg version="1.0" xmlns="http://www.w3.org/2000/svg"
 width="449.000000pt" height="449.000000pt" viewBox="0 0 449.000000 449.000000"
 preserveAspectRatio="xMidYMid meet">
<metadata>
Created by potrace 1.14, written by Peter Selinger 2001-2017
</metadata>
<g transform="translate(0.000000,449.000000) scale(0.100000,-0.100000)"
fill="#000000" stroke="none">
<path d="M2258 4076 c-1 -2 -48 -6 -103 -10 -107 -6 -121 -8 -222 -32 -359
-83 -684 -311 -881 -618 -65 -102 -136 -253 -167 -353 -25 -85 -29 -98 -40
-153 -2 -14 -8 -38 -11 -55 -10 -43 -11 -435 -2 -435 4 0 8 -12 9 -27 0 -16
11 -68 25 -118 13 -49 26 -97 28 -105 2 -8 6 -23 10 -32 4 -9 4 -23 0 -30 -4
-7 -4 -10 1 -6 4 4 32 -43 63 -105 30 -62 65 -126 78 -143 13 -17 24 -36 24
-42 0 -6 4 -12 8 -14 4 -1 23 -23 42 -48 19 -25 44 -53 54 -62 10 -10 17 -18
14 -18 -3 0 20 -26 51 -58 31 -32 58 -57 59 -56 9 5 40 -31 35 -39 -3 -6 -1
-7 4 -4 6 4 21 -3 34 -14 64 -54 58 -50 184 -123 39 -22 72 -44 73 -48 2 -4
12 -8 22 -8 26 0 70 -21 70 -33 0 -6 3 -8 6 -4 4 3 21 0 38 -7 34 -14 41 -16
57 -16 5 0 7 -5 3 -12 -4 -6 -3 -8 3 -5 6 4 64 -4 129 -18 65 -14 137 -26 161
-27 24 -1 40 -5 36 -11 -4 -6 0 -6 11 0 9 5 43 6 76 3 35 -3 64 -2 70 4 7 7
10 6 10 -3 0 -7 5 -9 13 -4 6 4 28 9 47 10 59 3 122 11 127 17 4 3 13 0 22 -6
9 -7 12 -8 8 -3 -7 8 49 27 118 39 11 2 33 9 48 15 16 6 32 9 37 6 5 -3 10 -2
12 3 6 14 108 53 120 46 6 -4 8 -3 4 4 -6 10 17 23 38 21 5 0 13 6 18 15 5 9
13 14 17 12 4 -3 18 4 30 15 12 11 30 21 41 22 10 1 16 5 14 9 -3 4 -1 8 3 8
5 0 35 20 68 45 33 25 66 43 73 40 7 -3 10 0 6 6 -3 6 8 23 25 38 101 90 117
108 201 216 29 39 60 69 68 68 10 -1 11 2 4 9 -8 8 -6 19 6 37 84 123 196 431
193 529 0 12 3 22 7 22 10 0 8 382 -2 425 -14 58 -28 120 -31 139 -26 124
-142 368 -235 491 -142 189 -308 329 -508 430 -86 43 -282 119 -282 110 0 -3
-10 -1 -23 4 -13 5 -39 12 -58 15 -19 3 -45 8 -59 11 -14 3 -65 7 -115 11 -49
3 -95 7 -102 9 -6 2 -13 2 -15 1z"/>
<path d="M1706 1248 c3 -5 10 -6 15 -3 13 9 11 12 -6 12 -8 0 -12 -4 -9 -9z"/>
<path d="M2835 1251 c-3 -5 -2 -12 3 -15 5 -3 9 1 9 9 0 17 -3 19 -12 6z"/>
<path d="M1396 1217 c3 -10 9 -15 12 -12 3 3 0 11 -7 18 -10 9 -11 8 -5 -6z"/>
<path d="M1910 1210 c0 -5 5 -10 11 -10 5 0 7 5 4 10 -3 6 -8 10 -11 10 -2 0
-4 -4 -4 -10z"/>
<path d="M2106 1172 c-3 -5 1 -9 9 -9 8 0 12 4 9 9 -3 4 -7 8 -9 8 -2 0 -6 -4
-9 -8z"/>
<path d="M2473 1085 c0 -8 4 -12 9 -9 5 3 6 10 3 15 -9 13 -12 11 -12 -6z"/>
<path d="M2155 1061 c-3 -5 -2 -12 3 -15 5 -3 9 1 9 9 0 17 -3 19 -12 6z"/>
<path d="M1590 976 c0 -2 7 -7 16 -10 8 -3 12 -2 9 4 -6 10 -25 14 -25 6z"/>
<path d="M2693 965 c0 -8 4 -12 9 -9 5 3 6 10 3 15 -9 13 -12 11 -12 -6z"/>
<path d="M2239 923 c-13 -16 -12 -17 4 -4 16 13 21 21 13 21 -2 0 -10 -8 -17
-17z"/>
</g>
</svg>
